<svg width="116" height="116" viewBox="0 0 116 116" fill="none" xmlns="http://www.w3.org/2000/svg">
<g clip-path="url(#clip0)">
<path d="M116 89.8422C114.312 90.4807 112.448 90.4793 110.761 89.8382C109.074 89.1972 107.679 87.9607 106.841 86.3622L90.1659 63.3024L87.7492 60.0785L68.4014 86.3912C67.6135 87.9226 66.2948 89.1147 64.6918 89.7445C63.0889 90.3743 61.3114 90.3987 59.6917 89.8132L84.6221 56.3665L61.4317 26.1534C63.0992 25.5525 64.9228 25.5445 66.5955 26.1308C68.2681 26.7171 69.6877 27.8619 70.6151 29.3724L87.8991 52.7174L105.28 29.469C106.074 27.9648 107.393 26.8048 108.986 26.2096C110.579 25.6143 112.336 25.6253 113.922 26.2404L104.922 38.1835L92.7324 54.0514C92.3939 54.3533 92.123 54.7234 91.9375 55.1374C91.7521 55.5514 91.6562 55.9999 91.6562 56.4535C91.6562 56.9072 91.7521 57.3557 91.9375 57.7696C92.123 58.1836 92.3939 58.5537 92.7324 58.8557L115.952 89.847L116 89.8422ZM0.00972465 55.9509L2.03972 45.9217C7.61739 26.0905 30.3534 17.84 45.9941 30.1167C55.1532 37.3135 57.4394 47.5022 56.9899 58.9862H5.39406C4.55789 79.494 19.3576 91.877 38.2801 85.5502C41.3476 84.446 44.0933 82.5982 46.2713 80.1722C48.4493 77.7462 49.9915 74.8179 50.7597 71.6495C51.7602 68.4305 53.4084 67.8795 56.4341 68.8075C55.9299 72.734 54.5418 76.4951 52.3744 79.8078C50.207 83.1205 47.3165 85.8986 43.9206 87.933C38.3111 91.0014 31.8751 92.2175 25.5327 91.4076C19.1904 90.5976 13.2666 87.8031 8.60823 83.4235C4.0022 78.2392 1.21843 71.6906 0.681558 64.7765C0.681558 63.6407 0.294891 62.5774 0.0338913 61.5575C0.0103628 59.6903 -0.000915226 57.823 5.7982e-05 55.9557L0.00972465 55.9509ZM5.45689 54.5685H52.1179C51.8279 39.7012 42.4464 29.1549 29.9329 29.0582C16.0032 28.8649 6.03689 39.1792 5.42306 54.5009L5.45689 54.5685Z" fill="#41873F"/>
</g>
<defs>
<clipPath id="clip0">
<rect width="116" height="116" fill="white"/>
</clipPath>
</defs>
</svg>
