<svg width="75" height="75" viewBox="0 0 75 75" fill="none" xmlns="http://www.w3.org/2000/svg">
<path fill-rule="evenodd" clip-rule="evenodd" d="M37.5001 4.25049C29.6019 4.2471 21.9604 7.05533 15.944 12.1723C9.9276 17.2893 5.92915 24.3809 4.66465 32.1772C3.40016 39.9735 4.95222 47.9653 9.0429 54.7216C13.1336 61.4779 19.4957 66.5574 26.9901 69.0505C28.6501 69.3555 29.2601 68.3305 29.2601 67.4505C29.2601 66.6555 29.2301 64.5705 29.2101 61.7955C19.9651 63.8005 18.0101 57.3355 18.0101 57.3355C16.5001 53.4955 14.3201 52.4705 14.3201 52.4705C11.3001 50.4105 14.5501 50.4505 14.5501 50.4505C17.8851 50.6855 19.6401 53.8755 19.6401 53.8755C22.6101 58.9605 27.4251 57.4905 29.3201 56.6405C29.6201 54.4905 30.4801 53.0255 31.4301 52.1955C24.0451 51.3555 16.2851 48.5055 16.2851 35.7605C16.2851 32.1305 17.5851 29.1655 19.7101 26.8405C19.3651 26.0005 18.2251 22.6205 20.0351 18.0405C20.0351 18.0405 22.8251 17.1455 29.1751 21.4455C31.8251 20.7105 34.6751 20.3455 37.5001 20.3305C40.312 20.3344 43.1112 20.7093 45.8251 21.4455C52.1751 17.1455 54.9601 18.0455 54.9601 18.0455C56.7751 22.6205 55.6351 25.9955 55.2901 26.8405C57.4251 29.1655 58.7101 32.1305 58.7101 35.7605C58.7101 48.5355 50.9351 51.3455 43.5301 52.1705C44.7201 53.1955 45.7801 55.2255 45.7801 58.3305C45.7801 62.7705 45.7451 66.3555 45.7451 67.4455C45.7451 68.3355 46.3451 69.3705 48.0301 69.0455C55.5104 66.5377 61.8557 61.4525 65.9327 54.6982C70.0097 47.9438 71.553 39.96 70.2868 32.1728C69.0207 24.3856 65.0277 17.302 59.0208 12.1872C53.014 7.07233 45.3845 4.2593 37.4951 4.25049H37.5001Z" fill="#F2F7FF"/>
</svg>
