<svg width="73" height="82" viewBox="0 0 73 82" fill="none" xmlns="http://www.w3.org/2000/svg">
<path d="M72.8731 16.0742L66.2458 75.2142L36.4555 81.7928L6.74736 75.2233L0.126892 16.0742H72.8731Z" fill="#E44D26"/>
<path d="M36.5 76.7642L60.572 71.4483L66.2352 20.9104H36.5V76.7642Z" fill="#F16529"/>
<path d="M23.6166 35.4194H36.5V28.165H13.6638L13.8817 30.1112L16.1202 50.1024H36.5V42.848H24.449L23.6166 35.4194Z" fill="#EBEBEB"/>
<path d="M25.6692 53.7297H16.5271L17.8029 65.1202L36.4581 69.2452L36.5 69.2361V61.6885L36.4601 61.6969L26.3176 59.5154L25.6692 53.7297Z" fill="#EBEBEB"/>
<path d="M6.89508 0H11.5232V3.6423H15.7569V0H20.3853V11.0298H15.7572V7.33639H11.5235V11.0298H6.89537V0H6.89508Z" fill="black"/>
<path d="M26.4711 3.65774H22.3973V0H35.1763V3.65774H31.1V11.0298H26.4719V3.65774H26.4716H26.4711Z" fill="black"/>
<path d="M37.2043 0H42.03L44.9985 3.87558L47.9641 0H52.7918V11.0298H48.1826V5.56282L44.9985 9.48451H44.9187L41.7326 5.56282V11.0298H37.2043V0Z" fill="black"/>
<path d="M55.095 0H59.7246V7.38409H66.233V11.0298H55.0948V0H55.095Z" fill="black"/>
<path d="M36.4686 50.1025H47.683L46.6256 59.511L36.4683 61.6947V69.2419L55.1384 65.1203L55.2752 63.8947L57.4156 44.7962L57.6378 42.8481H36.4686V50.1025Z" fill="white"/>
<path d="M36.4686 35.4017V35.4194H58.4664L58.6489 33.789L59.0641 30.1112L59.2817 28.165H36.4686V35.4019V35.4017Z" fill="white"/>
</svg>
