<svg width="164" height="47" viewBox="0 0 164 47" fill="none" xmlns="http://www.w3.org/2000/svg">
<g clip-path="url(#clip0)">
<path fill-rule="evenodd" clip-rule="evenodd" d="M152.697 19.4641C152.55 19.4937 152.402 19.8205 152.402 19.9985C152.372 21.187 152.343 24.336 152.343 26.4749C152.343 26.5344 152.431 26.6532 152.52 26.6532C152.963 26.6828 154.027 26.7124 154.944 26.7124C156.215 26.7124 156.954 26.5344 157.368 26.3564C158.432 25.8214 158.934 24.6628 158.934 23.3851C158.934 20.5039 156.924 19.4046 153.939 19.4046C153.732 19.375 153.141 19.375 152.697 19.4641ZM160.324 32.7432C160.324 29.8022 158.166 28.1681 154.264 28.1681C154.087 28.1681 152.845 28.1385 152.549 28.1978C152.461 28.2277 152.343 28.2873 152.343 28.3764C152.343 30.4853 152.313 33.8426 152.402 35.1496C152.461 35.7139 152.875 36.5161 153.377 36.7537C153.909 37.0508 155.121 37.1101 155.949 37.1101C158.284 37.1101 160.324 35.8031 160.324 32.7432ZM146.668 17.8304C146.963 17.8304 147.85 17.9192 150.126 17.9192C152.284 17.9192 153.998 17.86 156.097 17.86C158.668 17.86 162.215 18.7807 162.215 22.6427C162.215 24.544 160.885 26.0593 159.141 26.8019C159.053 26.8315 159.053 26.8908 159.141 26.9204C161.624 27.5446 163.812 29.0891 163.812 32.0002C163.812 34.8524 162.038 36.6645 159.466 37.7935C157.9 38.4766 155.949 38.7142 153.968 38.7142C152.461 38.7142 148.411 38.5361 146.165 38.5957C145.929 38.5062 146.372 37.4368 146.579 37.2588C147.111 37.2288 147.524 37.1992 148.086 37.0209C148.884 36.8132 148.973 36.5753 149.091 35.3575C149.15 34.3177 149.15 30.6337 149.15 28.0197C149.15 24.4252 149.18 21.9893 149.15 20.8011C149.121 19.8804 148.796 19.5829 148.145 19.4046C147.643 19.3157 146.815 19.1966 146.135 19.1078C145.987 18.959 146.49 17.9489 146.668 17.8304ZM129.612 36.3082C130.321 36.8722 131.711 37.1097 132.952 37.1097C134.548 37.1097 136.144 36.8132 137.682 35.4164C139.248 33.991 140.342 31.7926 140.342 28.2873C140.342 24.93 139.071 22.1969 136.469 20.5931C134.992 19.6718 133.1 19.2861 130.912 19.2861C130.262 19.2861 129.641 19.3157 129.257 19.4937C129.168 19.5533 128.962 19.8205 128.962 19.9689C128.902 20.5632 128.902 25.1379 128.902 27.8118C128.902 30.5745 128.902 34.4365 128.962 34.8821C128.962 35.3279 129.168 36.011 129.612 36.3082H129.612ZM122.902 17.8301C123.463 17.8301 125.621 17.9192 126.656 17.9192C128.518 17.9192 129.848 17.8304 133.366 17.8304C136.321 17.8304 138.805 18.6323 140.578 20.1472C142.736 22.0189 143.859 24.6035 143.859 27.7522C143.859 32.2381 141.82 34.8228 139.78 36.3082C137.741 37.8231 135.08 38.7142 131.297 38.7142C129.287 38.7142 125.828 38.6549 122.961 38.625H122.931C122.784 38.3578 123.168 37.318 123.404 37.2884C124.173 37.1992 124.38 37.1693 124.764 37.0212C125.385 36.7833 125.503 36.4566 125.592 35.3575C125.68 33.3076 125.651 30.842 125.651 28.0494C125.651 26.0593 125.68 22.1673 125.621 20.9195C125.533 19.88 125.089 19.6125 124.202 19.4342C123.759 19.3453 123.168 19.2262 122.34 19.1374C122.222 18.9291 122.754 18.0084 122.902 17.8304V17.8301Z" fill="#8E714E"/>
<path fill-rule="evenodd" clip-rule="evenodd" d="M87.1356 37.4665C86.3966 37.3773 85.8646 37.2589 85.2143 36.9617C85.1256 36.9022 84.9776 36.6054 84.9776 36.4863C84.9187 35.4465 84.9187 32.4758 84.9187 30.4857C84.9187 28.8813 84.6528 27.4851 83.9728 26.5049C83.1746 25.3756 82.0221 24.7224 80.5438 24.7224C79.2434 24.7224 77.4993 25.6135 76.0508 26.8612C76.0214 26.8909 75.785 27.0991 75.8144 26.7721C75.8144 26.4453 75.8737 25.7918 75.9032 25.346C75.933 24.9301 75.6962 24.7224 75.6962 24.7224C74.7504 25.1976 72.0902 25.8214 71.1145 25.9103C70.4053 26.0593 70.2279 26.7424 70.9671 26.98H70.9966C71.7942 27.2176 72.3266 27.4851 72.7401 27.7526C73.0357 27.9902 73.0063 28.3169 73.0063 28.5845C73.0357 30.8121 73.0357 34.2286 72.9473 36.1003C72.9179 36.8429 72.7109 37.1101 72.1786 37.2289L72.2378 37.1993C71.824 37.2885 71.4989 37.3773 70.9963 37.4369C70.8188 37.6152 70.8188 38.5658 70.9963 38.7738C71.3214 38.7738 73.0357 38.6846 74.455 38.6846C76.4057 38.6846 77.4109 38.7738 77.9131 38.7738C78.12 38.5362 78.1793 37.6448 78.0611 37.4369C77.4993 37.4073 77.0854 37.348 76.7014 37.2289C76.1693 37.1098 76.0214 36.8429 75.9916 36.2191C75.933 34.6442 75.933 31.3172 75.933 29.0596C75.933 28.4357 76.1101 28.1386 76.2872 27.9603C76.9672 27.3663 78.0611 26.9504 79.0365 26.9504C79.9823 26.9504 80.6028 27.2475 81.0759 27.6338C81.7261 28.1682 81.933 28.9408 82.0218 29.5051C82.1694 30.7825 82.1105 33.3076 82.1105 35.506C82.1105 36.6942 82.0218 36.9913 81.5788 37.1398C81.3715 37.2289 80.8395 37.348 80.2187 37.4069C80.0118 37.6152 80.0711 38.5362 80.2187 38.7442C81.0759 38.7442 82.081 38.655 83.559 38.655C85.3915 38.655 86.5741 38.7442 87.0471 38.7442C87.1945 38.5658 87.2538 37.7044 87.1356 37.4665ZM95.3234 26.1189C93.7571 26.1189 92.7814 27.3367 92.7814 29.2376C92.7814 31.1688 93.6385 33.3968 96.0624 33.3968C96.4762 33.3968 97.2449 33.2185 97.5992 32.8026C98.161 32.2682 98.5454 31.1984 98.5454 30.0695C98.5454 27.6039 97.3334 26.1186 95.3234 26.1186V26.1189ZM95.1165 39.249C94.5255 39.249 94.1113 39.4273 93.8455 39.576C92.6039 40.3776 92.0424 41.1502 92.0424 42.0715C92.0424 42.9327 92.3675 43.6158 93.077 44.21C93.9342 44.9527 95.1165 45.3094 96.6239 45.3094C99.639 45.3094 100.969 43.6753 100.969 42.0715C100.969 40.9422 100.407 40.1996 99.2549 39.784C98.4272 39.4273 96.9198 39.249 95.1165 39.249ZM95.3234 46.9731C93.5203 46.9731 92.2196 46.5867 91.0965 45.7253C90.0027 44.8935 89.5299 43.6457 89.5299 42.7843C89.5299 42.5467 89.5892 41.8929 90.1212 41.2989C90.446 40.9422 91.1558 40.2591 92.8406 39.1006C92.8996 39.0709 92.9291 39.0413 92.9291 38.9814C92.9291 38.9222 92.8698 38.8627 92.8109 38.8334C91.4217 38.2987 91.0078 37.4369 90.8893 36.9617V36.9022C90.8602 36.7238 90.8009 36.5458 91.0671 36.3675C91.274 36.2191 91.5696 36.0407 91.8944 35.8331C92.397 35.5356 92.9291 35.2089 93.2542 34.9414C93.3134 34.8821 93.3134 34.8229 93.3134 34.7634C93.3134 34.7038 93.2542 34.6442 93.1949 34.6149C91.1263 33.9315 90.0917 32.3866 90.0917 30.0695C90.0917 28.5545 90.7714 27.188 91.9832 26.3265C92.8109 25.673 94.8801 24.8708 96.2398 24.8708H96.3285C97.7177 24.9004 98.4862 25.1976 99.5797 25.5839C100.171 25.7918 100.733 25.8807 101.502 25.8807C102.654 25.8807 103.157 25.5243 103.57 25.1087C103.6 25.1679 103.659 25.3167 103.689 25.7027C103.718 26.089 103.6 26.6533 103.304 27.0692C103.068 27.3959 102.536 27.6338 102.004 27.6338H101.856C101.324 27.5743 101.087 27.5147 101.087 27.5147L100.969 27.5743C100.94 27.6338 100.969 27.6931 100.999 27.7822L101.028 27.8418C101.087 28.109 101.206 28.9109 101.206 29.1192C101.206 31.5551 100.23 32.6242 99.1956 33.4264C98.1905 34.1691 97.038 34.6442 95.7372 34.7634C95.7078 34.7634 95.5899 34.7634 95.3234 34.793C95.1757 34.793 94.9688 34.8229 94.939 34.8229H94.9095C94.6732 34.8821 94.0822 35.1793 94.0822 35.684C94.0822 36.1296 94.348 36.6646 95.619 36.7538C95.8849 36.7834 96.1507 36.7834 96.4467 36.8133C98.1316 36.9318 100.23 37.0805 101.206 37.4073C102.565 37.912 103.422 39.1302 103.422 40.5859C103.422 42.7846 101.856 44.8342 99.2549 46.1113C97.9839 46.6759 96.7126 46.9731 95.3234 46.9731ZM112.172 26.2673C111.551 26.2673 110.99 26.4154 110.576 26.7125C109.423 27.4256 108.832 28.8517 108.832 30.9309C108.832 34.8229 110.783 37.556 113.561 37.556C114.389 37.556 115.039 37.3181 115.601 36.8429C116.458 36.1296 116.902 34.7038 116.902 32.7134C116.902 28.8517 114.98 26.267 112.172 26.267L112.172 26.2673ZM112.704 38.9818C107.679 38.9818 105.876 35.2684 105.876 31.7927C105.876 29.3567 106.851 27.4851 108.802 26.1482C110.192 25.2867 111.847 24.8116 113.325 24.8116C117.167 24.8116 119.857 27.5743 119.857 31.5551C119.857 34.2583 118.793 36.3971 116.754 37.7044C115.778 38.3579 114.093 38.9818 112.704 38.9818H112.704ZM60.0301 26.267C59.4093 26.267 58.8478 26.4154 58.4336 26.7125C57.2812 27.4256 56.6899 28.8517 56.6899 30.9309C56.6899 34.8229 58.6406 37.556 61.4193 37.556C62.247 37.556 62.8972 37.3181 63.459 36.8429C64.3159 36.1296 64.7595 34.7038 64.7595 32.7134C64.7595 28.8517 62.8677 26.267 60.0301 26.267ZM60.5621 38.9818C55.5371 38.9818 53.734 35.2684 53.734 31.7927C53.734 29.3567 54.7094 27.4851 56.6601 26.1482C58.0496 25.2867 59.705 24.8116 61.1829 24.8116C65.0257 24.8116 67.7153 27.5743 67.7153 31.5551C67.7153 34.2583 66.6513 36.3971 64.6115 37.7044C63.6656 38.3579 61.9808 38.9818 60.5621 38.9818ZM26.7762 38.6846C26.7169 38.5958 26.6577 38.3283 26.6875 38.0015C26.6875 37.7636 26.7467 37.6152 26.7762 37.556C27.397 37.4665 27.7221 37.3773 28.0767 37.2885C28.668 37.1397 28.9044 36.8133 28.9338 36.0707C29.0229 34.2882 29.0229 30.9013 28.9931 28.5545V28.495C28.9931 28.2278 28.9931 27.9007 28.668 27.6631C28.1949 27.3663 27.6334 27.0991 26.8944 26.8905C26.6285 26.802 26.4511 26.6533 26.4805 26.4753C26.4805 26.2969 26.658 26.089 27.0424 26.0294C28.0177 25.9402 30.5594 25.3167 31.5645 24.8708C31.6238 24.9301 31.7125 25.1087 31.7125 25.3463L31.6831 25.6727C31.6533 25.9998 31.6238 26.3861 31.6238 26.7721C31.6238 26.8909 31.7423 26.98 31.8602 26.98C31.9195 26.98 31.9787 26.9504 32.0376 26.9205C33.9294 25.4351 35.6437 24.9004 36.5304 24.9004C37.9791 24.9004 39.1025 25.5839 39.9596 27.0096C40.0186 27.0991 40.0778 27.1287 40.1665 27.1287C40.2255 27.1287 40.3139 27.0991 40.3437 27.0396C42.0878 25.7027 43.8319 24.9004 44.9844 24.9004C47.7333 24.9004 49.3592 26.9504 49.3592 30.4262C49.3592 31.4064 49.3592 32.6838 49.3297 33.8427C49.3297 34.8821 49.3002 35.8328 49.3002 36.5162C49.3002 36.6643 49.5068 37.1398 49.832 37.2289C50.2458 37.4369 50.8076 37.5261 51.5466 37.6448H51.5761C51.6353 37.8528 51.5171 38.6251 51.3989 38.7738C51.2215 38.7738 50.9553 38.7738 50.66 38.7442C49.9117 38.705 49.1626 38.6851 48.4133 38.6846C46.5808 38.6846 45.6349 38.7142 44.7182 38.7738C44.6596 38.5362 44.6298 37.8232 44.7182 37.6448C45.2505 37.556 45.5164 37.4665 45.8418 37.3776C46.4331 37.1993 46.5808 36.9318 46.6106 36.1595C46.6106 35.5952 46.7285 30.7825 46.551 29.6239C46.3739 28.4357 45.4869 27.0396 43.5359 27.0396C42.7969 27.0396 41.6445 27.3367 40.5211 28.1978C40.4622 28.2574 40.4026 28.4058 40.4026 28.495V28.5249C40.5211 29.1485 40.5211 29.8618 40.5211 30.9609V32.8917C40.5211 34.2286 40.4913 35.4764 40.5211 36.4267C40.5211 37.0805 40.9055 37.2289 41.2306 37.348C41.4081 37.3773 41.5259 37.4073 41.6739 37.4369C41.9398 37.4964 42.206 37.556 42.6198 37.6448C42.6791 37.7639 42.6791 38.1499 42.5903 38.4767C42.5606 38.655 42.5013 38.7439 42.4718 38.7738C41.467 38.7442 40.4324 38.7143 38.925 38.7143C38.4817 38.7143 37.7129 38.7442 37.0627 38.7442C36.5304 38.7442 36.0281 38.7738 35.7328 38.7738C35.703 38.7142 35.6437 38.5066 35.6437 38.1795C35.6437 37.9124 35.703 37.7044 35.7622 37.6448C35.9099 37.6152 36.0281 37.5856 36.1761 37.5856C36.5304 37.5261 36.8263 37.4665 37.1216 37.4073C37.6245 37.2589 37.8017 36.9913 37.8311 36.3379C37.9199 34.8525 38.0086 30.6045 37.8017 29.5348C37.4471 27.8119 36.4717 26.9504 34.9048 26.9504C33.9887 26.9504 32.8355 27.3959 31.89 28.1093C31.742 28.2278 31.6238 28.5246 31.6238 28.7921V30.5449C31.6238 32.6838 31.6238 35.3576 31.6533 36.5162C31.6831 36.8722 31.8009 37.2885 32.481 37.4369C32.6289 37.4665 32.8653 37.5261 33.161 37.556L33.6927 37.6448C33.7523 37.8232 33.7225 38.5362 33.6043 38.7738C33.3087 38.7738 32.9541 38.7442 32.5399 38.7442C31.9195 38.7142 31.1212 38.6846 30.2346 38.6846C29.2 38.6846 28.461 38.7142 27.8697 38.7442C27.4559 38.6846 27.1308 38.6846 26.7762 38.6846Z" fill="#442D22"/>
<path fill-rule="evenodd" clip-rule="evenodd" d="M11.2279 45.8144L10.0162 45.3981C10.0162 45.3981 10.1642 39.1896 7.94695 38.7441C6.46935 37.0208 8.18398 -34.3354 13.5044 38.5062C13.5044 38.5062 11.6715 39.4269 11.3464 41.0017C10.9915 42.5466 11.2279 45.8144 11.2279 45.8144Z" fill="white"/>
<path fill-rule="evenodd" clip-rule="evenodd" d="M11.2279 45.8144L10.0162 45.3981C10.0162 45.3981 10.1642 39.1896 7.94695 38.7441C6.46935 37.0208 8.18398 -34.3354 13.5044 38.5062C13.5044 38.5062 11.6715 39.4269 11.3464 41.0017C10.9915 42.5466 11.2279 45.8144 11.2279 45.8144Z" fill="#A6A385"/>
<path fill-rule="evenodd" clip-rule="evenodd" d="M11.8785 39.8136C11.8785 39.8136 22.4904 32.8026 20.007 18.2162C17.613 7.61121 11.9672 4.13547 11.3464 2.79854C10.6667 1.84792 10.0162 0.18457 10.0162 0.18457L10.4598 29.6832C10.4598 29.7131 9.54339 38.7143 11.8788 39.8139" fill="white"/>
<path fill-rule="evenodd" clip-rule="evenodd" d="M11.8785 39.8136C11.8785 39.8136 22.4904 32.8026 20.007 18.2162C17.613 7.61121 11.9672 4.13547 11.3464 2.79854C10.6667 1.84792 10.0162 0.18457 10.0162 0.18457L10.4598 29.6832C10.4598 29.7131 9.54339 38.7143 11.8788 39.8139" fill="#499D4A"/>
<path fill-rule="evenodd" clip-rule="evenodd" d="M9.39573 40.1996C9.39573 40.1996 -0.565993 33.3669 0.0253036 21.3358C0.586811 9.30447 7.62184 3.39277 8.98156 2.32336C9.86851 1.37274 9.89798 1.01605 9.95724 0.0654297C10.578 1.40235 10.4598 20.0585 10.5482 22.2565C10.8141 30.7229 10.0754 38.5958 9.39573 40.1996Z" fill="white"/>
<path fill-rule="evenodd" clip-rule="evenodd" d="M9.39573 40.1996C9.39573 40.1996 -0.565993 33.3669 0.0253036 21.3358C0.586811 9.30447 7.62184 3.39277 8.98156 2.32336C9.86851 1.37274 9.89798 1.01605 9.95724 0.0654297C10.578 1.40235 10.4598 20.0585 10.5482 22.2565C10.8141 30.7229 10.0754 38.5958 9.39573 40.1996Z" fill="#58AA50"/>
</g>
<defs>
<clipPath id="clip0">
<rect width="164" height="47" fill="white"/>
</clipPath>
</defs>
</svg>
