<svg width="269" height="165" viewBox="0 0 269 165" fill="none" xmlns="http://www.w3.org/2000/svg">
<g clip-path="url(#clip0)">
<path d="M132.982 164.524C132.071 164.524 131.221 164.281 130.431 163.856L122.356 159.058C121.141 158.39 121.748 158.147 122.113 158.026C123.752 157.479 124.056 157.357 125.756 156.386C125.938 156.264 126.181 156.325 126.363 156.447L132.557 160.151C132.8 160.273 133.103 160.273 133.285 160.151L157.514 146.122C157.756 146.001 157.878 145.757 157.878 145.454V117.457C157.878 117.152 157.756 116.91 157.514 116.788L133.285 102.82C133.043 102.698 132.739 102.698 132.557 102.82L108.329 116.788C108.086 116.91 107.964 117.213 107.964 117.456V145.454C107.964 145.697 108.086 146 108.329 146.122L114.948 149.948C118.53 151.77 120.777 149.644 120.777 147.519V119.885C120.777 119.521 121.08 119.157 121.505 119.157H124.602C124.967 119.157 125.331 119.46 125.331 119.885V147.519C125.331 152.316 122.72 155.11 118.166 155.11C116.769 155.11 115.676 155.11 112.579 153.592L106.203 149.948C104.625 149.037 103.653 147.336 103.653 145.515V117.517C103.653 115.695 104.625 113.994 106.203 113.084L130.431 99.0544C131.95 98.2042 134.014 98.2042 135.532 99.0544L159.76 113.084C161.339 113.994 162.311 115.695 162.311 117.517V145.515C162.311 147.336 161.339 149.037 159.76 149.948L135.532 163.977C134.743 164.342 133.832 164.524 132.982 164.524H132.982ZM140.451 145.272C129.825 145.272 127.638 140.413 127.638 136.283C127.638 135.919 127.942 135.555 128.367 135.555H131.525C131.889 135.555 132.192 135.797 132.192 136.162C132.678 139.381 134.075 140.96 140.511 140.96C145.612 140.96 147.799 139.806 147.799 137.073C147.799 135.494 147.191 134.34 139.236 133.55C132.617 132.882 128.488 131.425 128.488 126.141C128.488 121.222 132.618 118.306 139.54 118.306C147.312 118.306 151.138 120.979 151.624 126.809C151.624 126.991 151.563 127.173 151.442 127.356C151.32 127.477 151.138 127.598 150.956 127.598H147.798C147.494 127.598 147.191 127.356 147.13 127.052C146.402 123.712 144.519 122.618 139.54 122.618C133.954 122.618 133.285 124.562 133.285 126.019C133.285 127.781 134.075 128.327 141.604 129.299C149.073 130.271 152.595 131.668 152.595 136.89C152.535 142.235 148.163 145.272 140.451 145.272Z" fill="#539E43"/>
<path d="M57.8077 55.0236C57.8077 53.9306 57.2003 52.8975 56.2289 52.351L30.4826 37.5326C30.057 37.2893 29.5716 37.1679 29.0861 37.1069H28.8429C28.3574 37.1069 27.8714 37.2893 27.4464 37.5326L1.70014 52.351C0.728164 52.8975 0.121338 53.9301 0.121338 55.0236L0.182283 94.8638C0.182283 95.4103 0.485959 95.9568 0.97142 96.2001C1.45741 96.5038 2.06423 96.5038 2.4898 96.2001L17.7918 87.4545C18.7632 86.908 19.3706 85.8755 19.3706 84.7825V66.1375C19.3706 65.0445 19.9774 64.0119 20.9494 63.4654L27.4464 59.6998C27.9324 59.3961 28.4788 59.2742 29.0252 59.2742C29.5716 59.2742 30.118 59.3961 30.5436 59.6998L37.0405 63.4654C38.0125 64.0119 38.6193 65.044 38.6193 66.1375V84.7825C38.6193 85.8755 39.2267 86.908 40.1981 87.4545L55.5001 96.2001C55.9861 96.5038 56.5929 96.5038 57.0789 96.2001C57.5649 95.9568 57.8686 95.4103 57.8686 94.8638L57.8077 55.0236Z" fill="#333333"/>
<path d="M181.56 0.182228C181.074 -0.0610682 180.467 -0.0610682 180.041 0.182228C179.556 0.485954 179.252 0.971495 179.252 1.51799V40.9945C179.252 41.3587 179.07 41.7228 178.706 41.9661C178.342 42.1479 177.977 42.1479 177.613 41.9661L171.176 38.2615C170.705 37.9928 170.171 37.8515 169.628 37.8515C169.085 37.8515 168.551 37.9928 168.079 38.2615L142.333 53.1409C141.362 53.6874 140.754 54.72 140.754 55.813V85.5109C140.754 86.6039 141.362 87.6369 142.333 88.1834L168.079 103.063C168.551 103.332 169.085 103.473 169.628 103.473C170.171 103.473 170.705 103.332 171.176 103.063L196.923 88.1834C197.894 87.6369 198.501 86.6044 198.501 85.5109V11.4784C198.501 10.3245 197.894 9.29243 196.923 8.74541L181.56 0.182228H181.56ZM179.192 75.7333C179.192 76.037 179.07 76.2798 178.827 76.4012L170.023 81.5025C169.9 81.5625 169.765 81.5937 169.628 81.5937C169.491 81.5937 169.356 81.5625 169.233 81.5025L160.429 76.4012C160.185 76.2798 160.064 75.9761 160.064 75.7333V65.5301C160.064 65.2264 160.185 64.9836 160.429 64.8622L169.233 59.7604C169.356 59.7004 169.491 59.6692 169.628 59.6692C169.765 59.6692 169.9 59.7004 170.023 59.7604L178.827 64.8622C179.07 64.9831 179.192 65.2873 179.192 65.5301V75.7333Z" fill="#333333"/>
<path d="M267.239 65.2872C268.211 64.7407 268.757 63.7081 268.757 62.6146V55.3877C268.757 54.2947 268.15 53.2622 267.239 52.7157L241.675 37.8972C241.203 37.6286 240.67 37.4873 240.127 37.4873C239.584 37.4873 239.05 37.6286 238.578 37.8972L212.832 52.7761C211.86 53.3226 211.253 54.3552 211.253 55.4487V85.1466C211.253 86.2396 211.86 87.2721 212.832 87.8186L238.396 102.394C239.368 102.941 240.521 102.941 241.432 102.394L256.916 93.7712C257.402 93.5279 257.706 92.9814 257.706 92.4349C257.706 91.8884 257.402 91.342 256.916 91.0987L231.048 76.2192C230.563 75.916 230.259 75.43 230.259 74.8835V65.5914C230.259 65.0449 230.563 64.4984 231.048 64.2552L239.125 59.6394C239.361 59.4906 239.635 59.4116 239.914 59.4116C240.193 59.4116 240.467 59.4906 240.703 59.6394L248.779 64.2552C249.265 64.5589 249.569 65.0444 249.569 65.5914V72.8793C249.569 73.4258 249.873 73.9723 250.358 74.2151C250.844 74.5188 251.451 74.5188 251.937 74.2151L267.239 65.2872V65.2872Z" fill="#333333"/>
<path d="M239.732 63.8908C239.822 63.8314 239.928 63.7998 240.035 63.7998C240.143 63.7998 240.249 63.8314 240.339 63.8908L245.258 66.7451C245.44 66.866 245.561 67.0483 245.561 67.2916V73.0004C245.561 73.2432 245.44 73.4255 245.258 73.5469L240.339 76.4013C240.249 76.4606 240.143 76.4923 240.035 76.4923C239.928 76.4923 239.822 76.4606 239.732 76.4013L234.813 73.5469C234.631 73.4255 234.51 73.2432 234.51 73.0004V67.2916C234.51 67.0483 234.631 66.866 234.813 66.7451L239.732 63.8908V63.8908Z" fill="#539E43"/>
<mask id="mask0" mask-type="alpha" maskUnits="userSpaceOnUse" x="70" y="37" width="58" height="66">
<path d="M100.86 38.0188C100.388 37.7501 99.8543 37.6089 99.3114 37.6089C98.7685 37.6089 98.2349 37.7501 97.7631 38.0188L72.1992 52.7758C71.2272 53.3223 70.6808 54.3548 70.6808 55.4478V85.0249C70.6808 86.1179 71.2881 87.1504 72.1992 87.6969L97.7631 102.455C98.2349 102.724 98.7685 102.865 99.3114 102.865C99.8543 102.865 100.388 102.724 100.86 102.455L126.424 87.6969C127.396 87.1504 127.943 86.1179 127.943 85.0249V55.4483C127.943 54.3554 127.335 53.3228 126.424 52.7763L100.86 38.0188Z" fill="white"/>
</mask>
<g mask="url(#mask0)">
<path d="M100.86 38.0188C100.388 37.7501 99.8543 37.6089 99.3114 37.6089C98.7685 37.6089 98.2349 37.7501 97.7631 38.0188L72.1992 52.7758C71.2272 53.3223 70.6808 54.3548 70.6808 55.4478V85.0249C70.6808 86.1179 71.2881 87.1504 72.1992 87.6969L97.7631 102.455C98.2349 102.724 98.7685 102.865 99.3114 102.865C99.8543 102.865 100.388 102.724 100.86 102.455L126.424 87.6969C127.396 87.1504 127.943 86.1179 127.943 85.0249V55.4483C127.943 54.3554 127.335 53.3228 126.424 52.7763L100.86 38.0188Z" fill="url(#paint0_linear)"/>
<path d="M126.485 52.7763L100.799 38.0188C100.547 37.8913 100.282 37.7896 100.01 37.7151L71.2272 87.0301C71.4656 87.3213 71.7536 87.568 72.0778 87.759L97.7631 102.517C98.4918 102.942 99.3419 103.063 100.131 102.82L127.153 53.3843C126.971 53.1415 126.727 52.9587 126.485 52.7769V52.7763Z" fill="url(#paint1_linear)"/>
<path fill-rule="evenodd" clip-rule="evenodd" d="M126.546 87.6975C127.274 87.2724 127.821 86.5435 128.064 85.7543L99.8878 37.6542C99.1591 37.5328 98.3694 37.5932 97.7022 38.0183L72.1986 52.7159L99.7055 102.881C100.106 102.815 100.494 102.693 100.859 102.516L126.545 87.698L126.546 87.6975Z" fill="url(#paint2_linear)"/>
<path fill-rule="evenodd" clip-rule="evenodd" d="M126.546 87.6975L100.921 102.456C100.559 102.64 100.169 102.763 99.7669 102.82L100.253 103.731L128.671 87.2729V86.9083L127.942 85.6934C127.821 86.5436 127.274 87.2724 126.546 87.6975V87.6975Z" fill="url(#paint3_linear)"/>
<path fill-rule="evenodd" clip-rule="evenodd" d="M126.546 87.6975L100.921 102.456C100.559 102.64 100.169 102.763 99.7669 102.82L100.253 103.731L128.671 87.2729V86.9083L127.942 85.6934C127.821 86.5436 127.274 87.2724 126.546 87.6975V87.6975Z" fill="url(#paint4_linear)"/>
</g>
</g>
<defs>
<linearGradient id="paint0_linear" x1="109.726" y1="49.0202" x2="81.6993" y2="93.0519" gradientUnits="userSpaceOnUse">
<stop stop-color="#41873F"/>
<stop offset="0.3288" stop-color="#418B3D"/>
<stop offset="0.6352" stop-color="#419637"/>
<stop offset="0.9319" stop-color="#3FA92D"/>
<stop offset="1" stop-color="#3FAE2A"/>
</linearGradient>
<linearGradient id="paint1_linear" x1="95.4301" y1="73.7014" x2="165.612" y2="35.5779" gradientUnits="userSpaceOnUse">
<stop offset="0.1376" stop-color="#41873F"/>
<stop offset="0.4032" stop-color="#54A044"/>
<stop offset="0.7136" stop-color="#66B848"/>
<stop offset="0.9081" stop-color="#6CC04A"/>
</linearGradient>
<linearGradient id="paint2_linear" x1="69.7467" y1="70.2378" x2="128.901" y2="70.2378" gradientUnits="userSpaceOnUse">
<stop offset="0.09192" stop-color="#6CC04A"/>
<stop offset="0.2864" stop-color="#66B848"/>
<stop offset="0.5968" stop-color="#54A044"/>
<stop offset="0.8624" stop-color="#41873F"/>
</linearGradient>
<linearGradient id="paint3_linear" x1="69.7471" y1="94.7617" x2="128.901" y2="94.7617" gradientUnits="userSpaceOnUse">
<stop offset="0.09192" stop-color="#6CC04A"/>
<stop offset="0.2864" stop-color="#66B848"/>
<stop offset="0.5968" stop-color="#54A044"/>
<stop offset="0.8624" stop-color="#41873F"/>
</linearGradient>
<linearGradient id="paint4_linear" x1="137.519" y1="47.6217" x2="122.528" y2="126.16" gradientUnits="userSpaceOnUse">
<stop stop-color="#41873F"/>
<stop offset="0.3288" stop-color="#418B3D"/>
<stop offset="0.6352" stop-color="#419637"/>
<stop offset="0.9319" stop-color="#3FA92D"/>
<stop offset="1" stop-color="#3FAE2A"/>
</linearGradient>
<clipPath id="clip0">
<rect width="269" height="165" fill="white"/>
</clipPath>
</defs>
</svg>
