<svg width="69" height="69" viewBox="0 0 69 69" fill="none" xmlns="http://www.w3.org/2000/svg">
<path d="M12.7262 58.6522L7.88326 4.3125H61.1168L56.2673 58.6435L34.4677 64.6875L12.7262 58.6522Z" fill="#1572B6"/>
<path d="M34.5 60.0689L52.1166 55.185L56.2609 8.75659H34.5V60.0689Z" fill="#33A9DC"/>
<path d="M34.5 28.4431H43.3191L43.9271 21.6186H34.5V14.9536H51.2109L51.0514 16.7411L49.4148 35.1081H34.5V28.4431Z" fill="white"/>
<path d="M34.541 45.7513L34.5108 45.7599L27.089 43.7546L26.6146 38.4395H19.9237L20.8574 48.9037L34.5086 52.6944L34.541 52.6858V45.7513Z" fill="#EBEBEB"/>
<path d="M42.752 34.8254L41.9498 43.7502L34.5172 45.7555V52.69L48.1792 48.9036L48.2806 47.778L49.4385 34.8254H42.752Z" fill="white"/>
<path d="M34.5237 14.9536V21.6186H18.4252L18.2915 20.12L17.9874 16.7411L17.8279 14.9536H34.5237Z" fill="#EBEBEB"/>
<path d="M34.5 28.4431V35.1081H27.1709L27.0372 33.6095L26.7354 30.2306L26.5758 28.4431H34.5Z" fill="#EBEBEB"/>
</svg>
